HIERARCHY
ROOT Hips
{
  OFFSET 5.72205e-005 65.662 3.42586
  CHANNELS 6 Xposition Yposition Zposition Zrotation Xrotation Yrotation
  JOINT Chest
  {
    OFFSET 0 8.7983 -4.7612
    CHANNELS 3 Zrotation Xrotation Yrotation
    JOINT Chest2
    {
      OFFSET 0 8.0291 0.4195
      CHANNELS 3 Zrotation Xrotation Yrotation
      JOINT Chest3
      {
        OFFSET 0 9.9351 -2.2114
        CHANNELS 3 Zrotation Xrotation Yrotation
        JOINT Neck
        {
          OFFSET 0 22.3885 -0.4656
          CHANNELS 3 Zrotation Xrotation Yrotation
          JOINT Head
          {
            OFFSET -0.0001 12.643 3.4389
            CHANNELS 3 Zrotation Xrotation Yrotation
            End Site
            {
              OFFSET 0.0001 17.6655 0.5274
            }
          }
        }
        JOINT LeftCollar
        {
          OFFSET 2.2603 21.606 7.4023
          CHANNELS 3 Zrotation Xrotation Yrotation
          JOINT LeftShoulder
          {
            OFFSET 13.5163 -1.1332 -5.0146
            CHANNELS 3 Zrotation Xrotation Yrotation
            JOINT LeftElbow
            {
              OFFSET -0.0995 -28.05 -0.2431
              CHANNELS 3 Zrotation Xrotation Yrotation
              JOINT LeftWrist
              {
                OFFSET 0.0679 -23.3996 -0.1402
                CHANNELS 3 Zrotation Xrotation Yrotation
                JOINT LeftFinger1
                {
                  OFFSET 0.7932 -9.069 2.5189
                  CHANNELS 3 Zrotation Xrotation Yrotation
                  JOINT LeftFinger11
                  {
                    OFFSET -0.8272 -3.3923 0.5977
                    CHANNELS 3 Zrotation Xrotation Yrotation
                    JOINT LeftFinger12
                    {
                      OFFSET -0.5649 -2.3158 0.4082
                      CHANNELS 3 Zrotation Xrotation Yrotation
                      End Site
                      {
                        OFFSET -0.4919 -1.6479 0.2673
                      }
                    }
                  }
                }
                JOINT LeftFinger2
                {
                  OFFSET 0.9159 -9.2044 0.2193
                  CHANNELS 3 Zrotation Xrotation Yrotation
                  JOINT LeftFinger21
                  {
                    OFFSET 0.0117 -4.1944 -0.0248
                    CHANNELS 3 Zrotation Xrotation Yrotation
                    JOINT LeftFinger22
                    {
                      OFFSET 0.0071 -2.3249 -0.0142
                      CHANNELS 3 Zrotation Xrotation Yrotation
                      End Site
                      {
                        OFFSET -0.1475 -2.0882 0.0028
                      }
                    }
                  }
                }
                JOINT LeftFinger3
                {
                  OFFSET 0.6113 -8.7231 -2.0637
                  CHANNELS 3 Zrotation Xrotation Yrotation
                  JOINT LeftFinger31
                  {
                    OFFSET -0.1927 -3.8059 -0.2383
                    CHANNELS 3 Zrotation Xrotation Yrotation
                    JOINT LeftFinger32
                    {
                      OFFSET -0.1091 -2.1688 -0.1362
                      CHANNELS 3 Zrotation Xrotation Yrotation
                      End Site
                      {
                        OFFSET -0.2358 -1.9176 -0.0906
                      }
                    }
                  }
                }
                JOINT LeftFinger4
                {
                  OFFSET -0.6151 -8.0947 -3.5641
                  CHANNELS 3 Zrotation Xrotation Yrotation
                  JOINT LeftFinger41
                  {
                    OFFSET -0.4882 -2.341 -0.6462
                    CHANNELS 3 Zrotation Xrotation Yrotation
                    JOINT LeftFinger42
                    {
                      OFFSET -0.3575 -1.7167 -0.4742
                      CHANNELS 3 Zrotation Xrotation Yrotation
                      End Site
                      {
                        OFFSET -0.4187 -1.5237 -0.3496
                      }
                    }
                  }
                }
                JOINT LeftFinger0
                {
                  OFFSET -1.42 -1.8761 1.4223
                  CHANNELS 3 Zrotation Xrotation Yrotation
                  JOINT LeftFinger01
                  {
                    OFFSET -1.1471 -3.4929 2.6334
                    CHANNELS 3 Zrotation Xrotation Yrotation
                    JOINT LeftFinger02
                    {
                      OFFSET -0.823 -2.3 1.6571
                      CHANNELS 3 Zrotation Xrotation Yrotation
                      End Site
                      {
                        OFFSET -0.5822 -1.6914 1.1582
                      }
                    }
                  }
                }
              }
            }
          }
        }
        JOINT RightCollar
        {
          OFFSET -2.2603 21.606 7.4023
          CHANNELS 3 Zrotation Xrotation Yrotation
          JOINT RightShoulder
          {
            OFFSET -13.5187 -1.1334 -5.0155
            CHANNELS 3 Zrotation Xrotation Yrotation
            JOINT RightElbow
            {
              OFFSET 0.0994 -28.0499 -0.2431
              CHANNELS 3 Zrotation Xrotation Yrotation
              JOINT RightWrist
              {
                OFFSET -0.0679 -23.3996 -0.1402
                CHANNELS 3 Zrotation Xrotation Yrotation
                JOINT RightFinger1
                {
                  OFFSET -0.7932 -9.0691 2.5189
                  CHANNELS 3 Zrotation Xrotation Yrotation
                  JOINT RightFinger11
                  {
                    OFFSET 0.8272 -3.3923 0.5977
                    CHANNELS 3 Zrotation Xrotation Yrotation
                    JOINT RightFinger12
                    {
                      OFFSET 0.565 -2.3158 0.4082
                      CHANNELS 3 Zrotation Xrotation Yrotation
                      End Site
                      {
                        OFFSET 0.4919 -1.6479 0.2673
                      }
                    }
                  }
                }
                JOINT RightFinger2
                {
                  OFFSET -0.916 -9.2044 0.2193
                  CHANNELS 3 Zrotation Xrotation Yrotation
                  JOINT RightFinger21
                  {
                    OFFSET -0.0117 -4.1944 -0.0248
                    CHANNELS 3 Zrotation Xrotation Yrotation
                    JOINT RightFinger22
                    {
                      OFFSET -0.0071 -2.3249 -0.0142
                      CHANNELS 3 Zrotation Xrotation Yrotation
                      End Site
                      {
                        OFFSET 0.1475 -2.0882 0.0028
                      }
                    }
                  }
                }
                JOINT RightFinger3
                {
                  OFFSET -0.6113 -8.7231 -2.0637
                  CHANNELS 3 Zrotation Xrotation Yrotation
                  JOINT RightFinger31
                  {
                    OFFSET 0.1927 -3.8059 -0.2383
                    CHANNELS 3 Zrotation Xrotation Yrotation
                    JOINT RightFinger32
                    {
                      OFFSET 0.1091 -2.1688 -0.1362
                      CHANNELS 3 Zrotation Xrotation Yrotation
                      End Site
                      {
                        OFFSET 0.2358 -1.9176 -0.0906
                      }
                    }
                  }
                }
                JOINT RightFinger4
                {
                  OFFSET 0.6151 -8.0947 -3.564
                  CHANNELS 3 Zrotation Xrotation Yrotation
                  JOINT RightFinger41
                  {
                    OFFSET 0.4882 -2.341 -0.6462
                    CHANNELS 3 Zrotation Xrotation Yrotation
                    JOINT RightFinger42
                    {
                      OFFSET 0.3574 -1.7166 -0.4742
                      CHANNELS 3 Zrotation Xrotation Yrotation
                      End Site
                      {
                        OFFSET 0.4187 -1.5237 -0.3496
                      }
                    }
                  }
                }
                JOINT RightFinger0
                {
                  OFFSET 1.4199 -1.8761 1.4221
                  CHANNELS 3 Zrotation Xrotation Yrotation
                  JOINT RightFinger01
                  {
                    OFFSET 1.1472 -3.4929 2.6336
                    CHANNELS 3 Zrotation Xrotation Yrotation
                    JOINT RightFinger02
                    {
                      OFFSET 0.8229 -2.3 1.6571
                      CHANNELS 3 Zrotation Xrotation Yrotation
                      End Site
                      {
                        OFFSET 0.5822 -1.6914 1.1582
                      }
                    }
                  }
                }
              }
            }
          }
        }
      }
    }
  }
  JOINT RightHip
  {
    OFFSET -9.412 3.9771 -0.7758
    CHANNELS 3 Zrotation Xrotation Yrotation
    JOINT RightKnee
    {
      OFFSET -0.7531 -40.938 0
      CHANNELS 3 Zrotation Xrotation Yrotation
      JOINT RightAnkle
      {
        OFFSET 0 -40.1986 0
        CHANNELS 3 Zrotation Xrotation Yrotation
        JOINT RightToe
        {
          OFFSET 0 -4.4182 9.239
          CHANNELS 3 Zrotation Xrotation Yrotation
          End Site
          {
            OFFSET 0 0 6.1981
          }
        }
      }
    }
  }
  JOINT LeftHip
  {
    OFFSET 9.4119 3.9773 -0.7758
    CHANNELS 3 Zrotation Xrotation Yrotation
    JOINT LeftKnee
    {
      OFFSET 0.7532 -40.9383 0
      CHANNELS 3 Zrotation Xrotation Yrotation
      JOINT LeftAnkle
      {
        OFFSET 0 -40.1986 0
        CHANNELS 3 Zrotation Xrotation Yrotation
        JOINT LeftToe
        {
          OFFSET 0 -4.4182 9.239
          CHANNELS 3 Zrotation Xrotation Yrotation
          End Site
          {
            OFFSET 0 0 6.1981
          }
        }
      }
    }
  }
}
MOTION
Frames:	4
Frame Time:	0.0333333
-0.00222157 1.65105 9.27932 1.18402e-008 -89.0022 6.84937e-014 -0.0925762 2.20045 -0.494394 -0.166316 4.40164 -0.986321 -0.166316 4.40163 -0.986319 5.46777 -7.22613 1.34265 5.9953 -4.12416 6.28664 3.58587 -9.79821 -14.437 92.7399 -18.4711 31.7667 2.10355 -26.0383 37.0443 -39.793 -18.608 30.5964 -7.87769e-008 -7.76233e-010 -4.18686e-007 -1.49089e-015 1.68325e-006 7.95139e-016 -3.47873e-015 -7.76259e-010 -3.97569e-016 -7.87769e-008 -7.76233e-010 -4.18686e-007 -0.0127985 0.00231672 8.54088e-005 -9.93923e-016 -7.76334e-010 -3.97569e-016 -7.87769e-008 -7.76233e-010 -4.18686e-007 -0.0160508 0.00299482 0.000857696 -6.95746e-016 1.68289e-006 3.97569e-016 -7.87769e-008 -7.76233e-010 -4.18686e-007 -0.0126068 0.00312761 0.00283295 8.74269e-006 -3.00071e-006 -1.30508e-006 -7.87769e-008 -7.76233e-010 -4.18686e-007 -1.49089e-015 1.68325e-006 7.95139e-016 -3.47873e-015 -7.76259e-010 -3.97569e-016 -4.30507 -9.65624 11.1349 -93.2911 -25.1677 -32.4727 1.11354 -29.8599 -32.9905 22.5388 -13.5484 -19.4618 1.07683e-005 3.24285e-006 2.11891e-006 -4.28565e-007 -4.41493e-006 -1.13117e-006 2.40287e-008 7.79704e-007 -1.64322e-006 1.07683e-005 3.24285e-006 2.11891e-006 0.012926 0.00231042 -8.57884e-005 -3.91287e-007 1.45029e-007 -1.55129e-006 1.07683e-005 3.24285e-006 2.11891e-006 0.0162758 0.00302499 -0.000876796 0 0 -0 1.07683e-005 3.24285e-006 2.11891e-006 0.0145585 0.00366959 -0.00325928 1.59028e-015 -4.77083e-015 -0 1.07683e-005 3.24285e-006 2.11891e-006 -4.28565e-007 -4.41493e-006 -1.13117e-006 2.40287e-008 7.79704e-007 -1.64322e-006 -17.2098 -39.1239 -20.6717 -173.187 60.2787 171.692 -11.651 -1.0565 0.280972 4.19542e-007 -2.42218e-006 -7.81726e-008 20.0659 -47.5081 24.3645 173.837 44.4652 -171.448 11.9413 -2.71216 1.32745 -2.13269e-007 -2.1162e-006 -8.28148e-007 
-0.00275083 1.6524 9.3124 2.87941e-006 -89.0022 3.0036e-006 -0.100105 2.15637 -0.485389 -0.182105 4.3135 -0.968032 -0.182105 4.31354 -0.968034 5.00682 -6.15344 1.18481 5.5398 -2.09064 5.52802 3.07095 -9.58916 -14.9489 92.6003 -19.9347 31.7896 -0.243651 -28.3765 36.7785 -40.2728 -18.7236 29.0954 -3.97569e-015 -2.67322e-010 1.19271e-015 -7.2313e-008 -2.67294e-010 -4.19848e-007 -6.95746e-016 0 -3.97569e-016 -3.97569e-015 -2.67322e-010 1.19271e-015 -0.0128242 0.00232115 8.475e-005 -5.36719e-015 -2.6765e-010 -0 -3.97569e-015 -2.67322e-010 1.19271e-015 -0.0160319 0.00299185 0.000856443 -3.67752e-015 1.59028e-015 -0 -3.97569e-015 -2.67322e-010 1.19271e-015 -0.0125507 0.00311541 0.00282305 -7.22843e-008 -2.66149e-010 -4.19853e-007 -3.97569e-015 -2.67322e-010 1.19271e-015 -7.2313e-008 -2.67294e-010 -4.19848e-007 -6.95746e-016 0 -3.97569e-016 -3.80776 -9.43463 11.4431 -93.0888 -26.399 -32.4859 3.45 -31.8329 -32.6864 24.4963 -13.9127 -18.6967 -1.59028e-015 -4.77083e-015 -0 -7.95139e-016 -3.18055e-015 -0 -1.59028e-015 0 -0 -1.59028e-015 -4.77083e-015 -0 0.0129406 0.00231019 -8.75585e-005 -1.76556e-031 -1.59028e-015 -6.36111e-015 -1.59028e-015 -4.77083e-015 -0 0.0163188 0.00303101 -0.000874677 -1.59028e-015 -3.02153e-014 6.36111e-015 -1.59028e-015 -4.77083e-015 -0 0.0145643 0.00366981 -0.00325953 7.95139e-016 1.59028e-015 -3.18055e-015 -1.59028e-015 -4.77083e-015 -0 -7.95139e-016 -3.18055e-015 -0 -1.59028e-015 0 -0 -16.6323 -39.2734 -20.0328 -173.186 60.2817 171.684 -11.1708 -1.03074 0.0112956 -5.13289e-008 8.39618e-007 8.67942e-007 19.3869 -47.6741 23.6963 173.837 44.4668 -171.433 11.4528 -2.70292 1.53799 -7.96738e-008 1.17683e-008 7.65369e-009 
-0.00328007 1.65375 9.34547 -0 -89.0022 -0 -0.107559 2.11233 -0.476361 -0.197727 4.22546 -0.949715 -0.197727 4.22548 -0.949716 4.54976 -5.07987 1.03601 5.113 -0.0593166 4.78867 2.55833 -9.37582 -15.4584 92.46 -21.3979 31.8089 -2.79016 -30.6193 35.9578 -40.756 -18.8272 27.5929 -6.44383e-008 -2.99433e-011 -4.21065e-007 -8.8363e-007 -9.73194e-007 7.15928e-007 -3.69747e-006 1.34881e-006 5.48268e-007 -6.44383e-008 -2.99433e-011 -4.21065e-007 -0.0128047 0.00232249 8.43037e-005 -6.4415e-008 -6.08138e-011 -4.21068e-007 -6.44383e-008 -2.99433e-011 -4.21065e-007 -0.0161316 0.00300999 0.000861114 -6.44083e-008 1.69493e-006 -4.21069e-007 -6.44383e-008 -2.99433e-011 -4.21065e-007 -0.0126233 0.00312999 0.00283665 -3.28999e-006 1.68891e-006 -7.01356e-007 -6.44383e-008 -2.99433e-011 -4.21065e-007 -8.8363e-007 -9.73194e-007 7.15928e-007 -3.69747e-006 1.34881e-006 5.48268e-007 -3.31201 -9.21063 11.7493 -92.8845 -27.6301 -32.4942 5.84598 -33.7922 -32.2809 26.3585 -14.4888 -18.1667 4.19406e-006 2.01938e-006 -3.87931e-006 -1.19271e-015 0 -3.18055e-015 -7.95139e-016 3.18055e-015 6.36111e-015 4.19406e-006 2.01938e-006 -3.87931e-006 0.0129451 0.0023156 -8.98724e-005 -2.78299e-015 -3.18055e-015 -9.54166e-015 4.19406e-006 2.01938e-006 -3.87931e-006 0.0163277 0.0030319 -0.000870489 2.78299e-015 0 -0 4.19406e-006 2.01938e-006 -3.87931e-006 0.0145958 0.00368768 -0.00327113 -2.85092e-007 -8.10032e-007 -1.59021e-006 4.19406e-006 2.01938e-006 -3.87931e-006 -1.19271e-015 0 -3.18055e-015 -7.95139e-016 3.18055e-015 6.36111e-015 -16.0518 -39.4173 -19.3908 -173.185 60.2852 171.676 -10.6905 -1.00717 -0.258612 1.98785e-016 -4.34702e-011 3.18055e-015 18.703 -47.8347 23.0231 173.837 44.4686 -171.418 10.9643 -2.69534 1.74865 -5.31112e-008 8.66725e-007 5.1489e-009 
-0.0038085 1.65509 9.37854 6.18034e-006 -89.0022 6.33895e-006 -0.114931 2.06827 -0.467293 -0.213175 4.13739 -0.931343 -0.213175 4.1374 -0.931341 4.09643 -4.00564 0.896075 4.73022 1.96629 4.04975 2.04802 -9.15794 -15.9656 92.3185 -22.86 31.8244 -5.43717 -32.8399 35.0264 -41.2419 -18.9186 26.09 2.85776e-006 3.85518e-007 -1.35932e-006 -1.39149e-015 -1.69974e-006 -0 1.15521e-007 -4.3278e-010 8.43987e-007 2.85776e-006 3.85518e-007 -1.35932e-006 -0.0128101 0.00232275 8.40472e-005 -4.27387e-015 -1.6999e-006 -7.95139e-016 2.85776e-006 3.85518e-007 -1.35932e-006 -0.016044 0.00299183 0.000855731 1.15461e-007 -3.59608e-010 8.43993e-007 2.85776e-006 3.85518e-007 -1.35932e-006 -0.0125349 0.00310528 0.00281458 5.77313e-008 -2.89383e-010 4.21998e-007 2.85776e-006 3.85518e-007 -1.35932e-006 -1.39149e-015 -1.69974e-006 -0 1.15521e-007 -4.3278e-010 8.43987e-007 -2.81785 -8.98392 12.0532 -92.6783 -28.8605 -32.4977 8.28845 -35.7478 -31.8164 28.2438 -15.0313 -17.5967 1.98785e-015 3.18055e-015 -0 2.38542e-015 4.77083e-015 -0 3.18055e-015 3.18055e-015 3.18055e-015 1.98785e-015 3.18055e-015 -0 0.0129622 0.00231693 -8.35586e-005 1.59028e-015 1.59028e-015 -3.18055e-015 1.98785e-015 3.18055e-015 -0 0.0164023 0.0030467 -0.000871179 -3.45696e-006 -3.49794e-007 -5.26672e-006 1.98785e-015 3.18055e-015 -0 0.014662 0.00370217 -0.00327948 -3.57812e-015 -3.18055e-015 -3.18055e-015 1.98785e-015 3.18055e-015 -0 2.38542e-015 4.77083e-015 -0 3.18055e-015 3.18055e-015 3.18055e-015 -15.4679 -39.5564 -18.7456 -173.184 60.2884 171.668 -10.2101 -0.985789 -0.528712 1.04832e-007 1.6543e-008 -1.98175e-008 18.015 -47.9891 22.3456 173.836 44.4708 -171.403 10.4757 -2.68937 1.95936 -1.85873e-007 -1.69016e-006 1.81835e-008 
